<?xml version="1.0" standalone="no"?>
<!DOCTYPE svg PUBLIC "-//W3C//DTD SVG 20010904//EN"
 "http://www.w3.org/TR/2001/REC-SVG-20010904/DTD/svg10.dtd">
<svg version="1.0" xmlns="http://www.w3.org/2000/svg"
 width="704.000000pt" height="704.000000pt" viewBox="0 0 704.000000 704.000000"
 preserveAspectRatio="xMidYMid meet">
<metadata>
Created by potrace 1.14, written by Peter Selinger 2001-2017
</metadata>
<g transform="translate(0.000000,704.000000) scale(0.100000,-0.100000)"
fill="#000000" stroke="none">
<path d="M6160 6067 c-3 -3 -41 -8 -85 -12 -79 -7 -95 -8 -185 -20 -25 -3 -65
-7 -90 -9 -68 -7 -151 -17 -190 -23 -19 -3 -42 -5 -50 -5 -8 0 -109 -11 -225
-23 -115 -13 -239 -26 -275 -30 -36 -3 -78 -8 -95 -10 -16 -2 -57 -7 -90 -10
-33 -3 -78 -8 -100 -11 -85 -10 -671 -72 -685 -72 -8 0 -33 -3 -55 -6 -54 -8
-109 -14 -360 -41 -77 -9 -161 -18 -187 -20 -73 -8 -139 -14 -188 -20 -25 -3
-65 -7 -90 -10 -25 -3 -82 -9 -128 -15 -46 -5 -86 -9 -90 -8 -4 1 -32 -2 -62
-6 -80 -11 -188 -23 -280 -31 -30 -3 -116 -12 -190 -20 -74 -8 -157 -18 -185
-21 -27 -2 -66 -7 -85 -9 -19 -2 -64 -7 -100 -10 -36 -4 -76 -8 -90 -10 -14
-2 -59 -7 -100 -10 -41 -3 -86 -7 -100 -10 -22 -3 -254 -29 -355 -40 -22 -2
-85 -8 -140 -14 -55 -6 -125 -13 -155 -16 -55 -5 -115 -12 -180 -20 -19 -3
-62 -7 -95 -11 -112 -10 -147 -30 -165 -94 -9 -32 0 -82 89 -500 46 -215 85
-399 136 -650 30 -146 59 -283 65 -305 16 -70 103 -480 155 -740 8 -38 21
-101 30 -140 8 -38 22 -106 31 -150 9 -44 24 -117 35 -162 10 -46 21 -98 24
-115 2 -18 30 -150 60 -293 31 -143 58 -272 59 -286 2 -14 5 -30 8 -35 3 -5
11 -40 18 -79 15 -85 30 -116 67 -140 26 -18 58 -19 469 -19 l441 -1 -20 -75
c-10 -41 -20 -82 -22 -90 -2 -8 -18 -71 -35 -140 -18 -69 -33 -132 -35 -140
-2 -8 -11 -44 -20 -80 -9 -36 -18 -72 -20 -80 -2 -8 -17 -69 -35 -135 -17 -66
-32 -137 -32 -157 -3 -121 117 -170 217 -86 31 25 221 171 245 188 12 8 30 22
40 31 10 8 31 24 45 35 15 10 33 25 40 32 8 6 16 12 19 12 3 0 16 9 28 19 19
16 182 143 250 193 9 7 56 43 105 81 48 37 174 132 278 212 105 80 205 157
224 172 19 16 39 30 45 32 6 2 17 11 25 18 8 8 39 33 70 56 31 23 58 44 61 47
3 3 43 34 90 69 47 36 97 74 112 85 14 12 39 31 55 43 15 11 63 49 107 82 43
34 84 62 90 62 6 1 332 2 723 3 701 2 713 2 740 22 16 12 34 33 41 47 7 14 28
142 47 284 19 142 37 276 41 298 12 85 14 104 29 215 15 123 23 177 30 225 8
52 14 95 35 260 23 179 28 219 35 255 2 14 7 48 10 75 3 28 8 68 11 90 3 22 7
54 9 70 2 17 11 82 20 145 8 63 18 131 20 150 3 19 14 100 25 180 11 80 22
168 25 195 3 28 8 57 10 65 4 14 14 93 20 150 1 14 5 41 8 60 3 19 11 71 17
115 5 44 17 130 25 190 9 61 18 128 21 150 2 22 7 51 9 65 2 14 7 45 10 70 3
25 8 63 12 85 3 22 7 49 8 60 1 11 6 54 10 96 8 83 -6 132 -45 157 -22 13
-102 27 -110 19z"/>
</g>
</svg>
